<?xml version="1.0" encoding="UTF-8"?>
<svg width="827px" height="664px" viewBox="0 0 827 664" version="1.1" xmlns="http://www.w3.org/2000/svg" xmlns:xlink="http://www.w3.org/1999/xlink">
    <!-- Generator: Sketch 45.1 (43504) - http://www.bohemiancoding.com/sketch -->
    <title>Shape Copy</title>
    <desc>Created with Sketch.</desc>
    <defs></defs>
    <g id="Page-1" stroke="none" stroke-width="1" fill="none" fill-rule="evenodd" stroke-dasharray="164,21" opacity="0.799999952">
        <path d="M405.808024,278.289954 L240.21258,148.814379 L240.21258,148.814379 C235.428391,145.073723 228.691805,145.143814 223.986483,148.983205 L172.504198,190.991093 L172.504198,190.991093 C166.941384,195.53017 166.111482,203.71937 170.650559,209.282184 C171.24897,210.01556 171.925687,210.681387 172.668674,211.267822 L405.632258,395.144727 L405.632258,395.144727 C410.353166,398.870914 417.013706,398.872383 421.736257,395.148277 L654.90453,211.276628 L654.90453,211.276628 C660.542206,206.830874 661.508449,198.656639 657.062695,193.018963 C656.472815,192.270934 655.8025,191.59001 655.063825,190.988456 L606.266313,151.249292 L606.266313,151.249292 C601.621814,147.466957 594.994147,147.347606 590.216479,150.960266 L421.656184,278.418045 L421.656184,278.418045 C416.955179,281.972735 410.450957,281.920165 405.808024,278.289954 Z M752.454226,287.290967 L421.80363,538.974722 L421.80363,538.974722 C417.116757,542.542264 410.616889,542.512794 405.962556,538.9029 L75.6807081,282.736717 L75.6807081,282.736717 C70.9604947,279.075726 64.3528507,279.10267 59.6626508,282.802035 L5.94975358,325.167734 L5.94975358,325.167734 C0.312528118,329.614059 -0.652887426,337.788392 3.79343761,343.425617 C4.42551469,344.226989 5.14976663,344.951137 5.9512302,345.583098 L405.633657,660.736246 L405.633657,660.736246 C410.354309,664.458521 417.011439,664.458564 421.732139,660.73635 L821.060972,345.870425 L821.060972,345.870425 C826.698898,341.424988 827.665602,333.250808 823.220166,327.612881 C822.473313,326.665685 821.598268,325.827042 820.62021,325.121086 L767.93644,287.094235 L767.93644,287.094235 C763.295179,283.744199 757.008865,283.824079 752.454226,287.290967 Z M405.9111,3.96262467 L342.512613,56.1437406 L342.512613,56.1437406 C336.969123,60.7063969 336.174,68.8990475 340.736656,74.4425377 C341.350041,75.1877815 342.044515,75.862395 342.807237,76.4539047 L408.391805,127.316334 L408.391805,127.316334 C413.133995,130.994018 419.777326,130.947721 424.467798,127.204301 L488.079181,76.43669 L488.079181,76.43669 C493.690811,71.9581042 494.609324,63.7783685 490.130739,58.1667389 C489.519617,57.4010092 488.823896,56.7068153 488.056824,56.0973788 L422.25936,3.82144484 L422.25936,3.82144484 C417.458557,0.00721815281 410.645314,0.0660557615 405.9111,3.96262467 Z" id="Shape-Copy" stroke="#49DFFF"></path>
    </g>
</svg>